<?xml version="1.0" standalone="no"?>
<!DOCTYPE svg PUBLIC "-//W3C//DTD SVG 20010904//EN"
 "http://www.w3.org/TR/2001/REC-SVG-20010904/DTD/svg10.dtd">
<svg version="1.0" xmlns="http://www.w3.org/2000/svg"
 width="600.000000pt" height="600.000000pt" viewBox="0 0 600.000000 600.000000"
 preserveAspectRatio="xMidYMid meet">
<metadata>
Created by potrace 1.14, written by Peter Selinger 2001-2017
</metadata>
<g transform="translate(0.000000,600.000000) scale(0.100000,-0.100000)"
fill="#000000" stroke="none">
<path d="M2817 5994 c-1 -1 -40 -4 -87 -8 -47 -3 -98 -8 -115 -10 -78 -11
-127 -19 -185 -31 -14 -3 -38 -8 -55 -10 -16 -3 -38 -8 -47 -11 -9 -3 -26 -7
-38 -9 -37 -7 -174 -45 -195 -54 -33 -14 -178 -63 -202 -68 -13 -3 -23 -9 -23
-14 0 -5 -7 -9 -15 -9 -8 0 -42 -13 -75 -29 -33 -16 -60 -26 -60 -23 0 4 -4 3
-8 -3 -4 -5 -35 -23 -69 -39 -35 -16 -63 -33 -63 -38 0 -4 -3 -7 -7 -6 -14 4
-113 -52 -113 -64 0 -6 -3 -9 -6 -5 -6 5 -81 -37 -94 -52 -3 -3 -17 -12 -32
-20 -15 -8 -37 -22 -47 -33 -11 -10 -25 -18 -31 -18 -5 0 -10 -4 -10 -9 0 -5
-8 -12 -17 -15 -10 -3 -32 -19 -50 -36 -18 -16 -36 -30 -40 -30 -5 0 -15 -9
-23 -20 -8 -11 -20 -20 -27 -20 -7 0 -13 -4 -13 -9 0 -6 -13 -18 -29 -27 -17
-10 -28 -21 -25 -26 3 -4 0 -8 -5 -8 -15 0 -241 -226 -241 -240 0 -6 -4 -8
-10 -5 -5 3 -10 2 -10 -4 0 -6 -8 -18 -18 -28 -10 -10 -45 -52 -78 -93 -32
-41 -61 -77 -64 -80 -3 -3 -9 -12 -15 -21 -31 -49 -70 -105 -82 -117 -7 -7
-13 -20 -13 -28 0 -8 -4 -14 -9 -14 -5 0 -16 -15 -26 -32 -9 -18 -30 -55 -46
-83 -16 -27 -34 -62 -40 -77 -6 -16 -14 -28 -18 -28 -4 0 -14 -18 -21 -40 -7
-22 -17 -40 -22 -40 -4 0 -8 -8 -8 -18 0 -10 -7 -27 -15 -38 -8 -10 -15 -27
-15 -36 0 -10 -4 -18 -9 -18 -5 0 -12 -12 -16 -27 -3 -15 -15 -46 -26 -70 -10
-23 -19 -48 -19 -55 0 -8 -4 -18 -10 -24 -5 -5 -11 -21 -14 -34 -2 -14 -5 -26
-7 -27 -1 -2 -2 -6 -4 -10 -1 -5 -4 -15 -7 -23 -8 -19 -39 -120 -44 -140 -2
-8 -8 -35 -15 -60 -6 -25 -13 -56 -16 -70 -9 -44 -11 -55 -13 -55 -1 0 -4 -16
-6 -35 -4 -38 -11 -75 -14 -75 -1 0 -3 -14 -5 -31 -2 -16 -6 -48 -10 -70 -21
-128 -25 -729 -5 -729 1 0 3 -20 5 -45 1 -25 4 -45 5 -45 1 0 3 -11 5 -25 7
-59 26 -161 46 -235 11 -44 20 -88 20 -97 0 -10 5 -18 10 -18 6 0 8 -4 5 -9
-3 -5 1 -28 10 -52 9 -24 18 -55 20 -68 3 -13 12 -37 20 -52 8 -16 12 -29 8
-29 -4 0 -1 -6 5 -13 6 -8 8 -17 4 -20 -3 -4 -1 -7 6 -7 7 0 10 -4 7 -9 -3 -5
1 -21 8 -37 8 -16 21 -47 31 -69 41 -97 158 -325 167 -325 5 0 7 -4 3 -9 -3
-5 1 -15 8 -23 7 -7 20 -28 28 -46 7 -17 17 -32 21 -32 5 0 8 -5 8 -10 0 -11
10 -24 42 -61 10 -10 15 -19 12 -19 -6 0 51 -80 78 -110 10 -11 16 -20 13 -20
-5 0 30 -42 62 -76 7 -7 13 -15 13 -17 0 -23 305 -327 410 -407 25 -19 53 -44
62 -54 10 -10 18 -16 18 -12 0 4 10 -2 22 -14 12 -11 26 -20 30 -20 5 0 6 -5
2 -12 -4 -6 -3 -8 3 -5 9 6 21 -1 70 -43 7 -5 17 -10 23 -10 5 0 10 -4 10 -10
0 -5 4 -10 9 -10 5 0 36 -17 68 -37 83 -54 93 -59 143 -84 25 -13 66 -35 93
-51 26 -15 47 -25 47 -22 0 2 19 -6 43 -19 23 -13 80 -38 127 -56 47 -18 94
-37 105 -41 81 -34 355 -111 403 -113 6 0 12 -3 12 -6 0 -3 10 -6 23 -7 12 -1
38 -4 57 -7 19 -3 55 -8 80 -12 25 -4 56 -9 70 -11 151 -25 563 -25 765 1 28
4 61 8 75 10 14 2 25 4 25 5 0 1 15 3 34 6 19 2 46 7 60 10 14 3 35 7 46 9 11
2 30 6 43 9 12 4 31 8 41 10 70 16 188 50 198 58 7 5 17 7 23 3 5 -3 10 -2 10
3 0 5 7 9 15 10 8 1 22 3 30 4 8 1 15 6 15 11 0 6 3 7 6 4 4 -3 16 -1 28 5 24
14 21 13 64 23 17 4 32 11 32 16 0 5 8 9 18 9 10 0 22 3 26 8 4 4 11 7 14 7
48 3 527 275 540 307 2 4 8 8 13 8 6 0 15 4 22 10 7 5 48 39 92 74 44 35 92
75 108 89 15 14 27 24 27 21 0 -2 53 49 118 114 126 127 272 294 272 311 0 6
3 11 8 11 4 0 18 17 32 38 14 20 30 41 37 45 7 4 13 15 13 23 0 8 7 17 15 20
8 4 12 10 10 15 -3 5 3 16 14 26 11 9 18 20 15 25 -3 4 -1 8 5 8 5 0 13 9 16
20 3 11 12 26 18 33 12 13 30 44 70 122 12 22 24 42 27 45 4 3 10 14 15 25 4
11 9 22 10 25 2 3 6 15 10 27 4 13 12 23 18 23 6 0 7 3 4 6 -3 4 0 16 8 28 8
11 15 28 15 38 0 10 5 18 12 18 6 0 9 3 5 6 -3 4 1 21 10 38 10 17 18 34 19
39 1 4 3 9 4 12 1 3 3 8 5 13 3 11 16 45 26 67 8 18 51 150 55 168 1 4 2 8 3
10 2 2 5 14 15 62 1 6 5 16 9 23 5 6 6 16 2 21 -3 5 -1 12 4 16 5 3 10 13 10
23 0 9 7 49 16 87 9 39 18 79 20 90 9 53 17 113 19 138 0 15 3 27 6 27 3 0 5
25 5 56 0 31 2 57 5 59 3 2 4 108 3 237 -2 260 -8 358 -28 468 -16 87 -23 136
-19 142 2 3 0 8 -5 10 -5 1 -10 19 -12 38 -2 19 -6 40 -10 45 -3 6 -10 28 -14
50 -5 22 -9 46 -11 54 -3 14 -40 129 -58 176 -6 17 -11 33 -12 38 -1 4 -3 9
-4 12 -1 3 -4 10 -5 15 -1 6 -4 12 -5 15 -1 3 -3 9 -4 14 0 5 -4 13 -8 17 -5
4 -8 16 -8 26 0 10 -4 18 -10 18 -5 0 -10 7 -10 15 0 8 -4 23 -9 33 -5 9 -21
44 -36 77 -14 33 -30 67 -35 75 -5 8 -21 39 -36 68 -14 30 -44 83 -65 118 -22
35 -39 68 -39 74 0 5 -4 10 -10 10 -5 0 -10 6 -10 13 0 7 -11 24 -25 39 -14
15 -25 30 -25 34 0 4 -20 34 -45 65 -25 32 -45 60 -45 63 0 4 -12 20 -27 38
-49 55 -67 77 -93 109 -43 54 -259 269 -271 269 -5 0 -7 5 -4 10 3 6 2 10 -2
10 -5 0 -24 14 -43 30 -19 17 -39 34 -45 38 -5 4 -39 31 -75 59 -89 69 -260
185 -260 176 0 -5 -4 -3 -8 3 -4 7 -25 22 -47 34 -22 13 -59 33 -81 46 -23 13
-44 20 -48 17 -3 -4 -6 -2 -6 4 0 8 -40 33 -60 38 -3 0 -15 6 -27 13 -13 7
-23 9 -23 5 0 -4 -6 1 -13 12 -8 10 -19 15 -25 11 -7 -4 -12 -2 -12 3 0 6 -6
11 -14 11 -8 0 -27 7 -43 15 -34 18 -159 65 -184 70 -10 2 -26 8 -37 14 -10 5
-30 12 -43 15 -13 2 -43 11 -66 20 -24 8 -43 13 -43 11 0 -3 -11 0 -25 5 -14
5 -36 12 -48 14 -12 3 -32 7 -44 10 -38 10 -59 14 -99 21 -42 8 -43 8 -119 20
-27 4 -58 9 -68 11 -58 10 -196 17 -370 18 -109 1 -199 1 -200 0z"/>
</g>
</svg>
